ffmpeg started on 2026-03-29 at 16:33:22
Report written to "D:\Convert\FFMetrics\reports\ssim_report-6.txt"
Log level: 32
Command line:
ffmpeg -hide_banner -nostdin -r 24000/1001 -i "F:\\\xc0\xed\xe8\xec\xe5\\LightFamily\\\xce\xe4\xed\xe0\xe6\xe4\xfb \xff \xf1\xf2\xe0\xeb\xe0 \xef\xf0\xe8\xed\xf6\xe5\xf1\xf1\xee\xe9\\LightFamilyDUB_\xce\xe4\xed\xe0\xe6\xe4\xfb_\xff_\xf1\xf2\xe0\xeb\xe0_\xef\xf0\xe8\xed\xf6\xe5\xf1\xf1\xee\xe9_02_\xf1\xe5\xf0\xe8\xff_HEVC.mkv" -r 24000/1001 -i "F:\\\xc0\xed\xe8\xec\xe5\\LightFamily\\\xce\xe4\xed\xe0\xe6\xe4\xfb \xff \xf1\xf2\xe0\xeb\xe0 \xef\xf0\xe8\xed\xf6\xe5\xf1\xf1\xee\xe9\\LightFamilyDUB_\xce\xe4\xed\xe0\xe6\xe4\xfb_\xff_\xf1\xf2\xe0\xeb\xe0_\xef\xf0\xe8\xed\xf6\xe5\xf1\xf1\xee\xe9_02_\xf1\xe5\xf0\xe8\xff.mp4" -lavfi "[0:v]settb=AVTB,setpts=PTS-STARTPTS,format=pix_fmts=yuv420p10le,fps=24000/1001,scale=1920:1080:flags=lanczos:param0=3:out_range=limited:out_chroma_loc=left,setsar=1/1,setdar=(1920/1080)*(1/1)[main];[1:v]settb=AVTB,setpts=PTS-STARTPTS,format=pix_fmts=yuv420p,fps=24000/1001,scale=1920:1080:flags=lanczos:param0=3:out_range=limited:out_chroma_loc=left,setsar=1/1,setdar=(1920/1080)*(1/1)[ref];[main][ref]ssim=eof_action=endall:stats_file='D\\:/Convert/FFMetrics/logs/ssim_logfile-6.txt'" -f null -
Input #0, matroska,webm, from 'F:\Аниме\LightFamily\Однажды я стала принцессой\LightFamilyDUB_Однажды_я_стала_принцессой_02_серия_HEVC.mkv':
  Metadata:
    COMPATIBLE_BRANDS: mp42mp41
    MAJOR_BRAND     : mp42
    MINOR_VERSION   : 0
    ENCODER         : Lavf61.7.100
  Duration: 00:20:53.46, start: -0.021000, bitrate: 1560 kb/s
  Stream #0:0(eng): Video: hevc (Main 10), yuv420p10le(tv, progressive), 1920x1080 [SAR 1:1 DAR 16:9], 23.98 fps, 23.98 tbr, 1k tbn (default)
      Metadata:
        HANDLER_NAME    : Mainconcept Video Media Handler
        VENDOR_ID       : [0][0][0][0]
        ENCODER         : Lavc61.19.100 libx265
        BPS             : 1360874
        DURATION        : 00:20:53.418708333
        NUMBER_OF_FRAMES: 30052
        NUMBER_OF_BYTES : 213217998
        _STATISTICS_WRITING_APP: mkvpropedit v94.0 ('Initiate') 64-bit
        _STATISTICS_WRITING_DATE_UTC: 2026-03-28 15:26:18
        _STATISTICS_TAGS: BPS DURATION NUMBER_OF_FRAMES NUMBER_OF_BYTES
  Stream #0:1(eng): Audio: aac (LC), 48000 Hz, stereo, fltp (default)
      Metadata:
        HANDLER_NAME    : #Mainconcept MP4 Sound Media Handler
        VENDOR_ID       : [0][0][0][0]
        ENCODER         : Lavc61.19.100 aac
        BPS             : 195501
        DURATION        : 00:20:53.440000000
        NUMBER_OF_FRAMES: 58756
        NUMBER_OF_BYTES : 30631218
        _STATISTICS_WRITING_APP: mkvpropedit v94.0 ('Initiate') 64-bit
        _STATISTICS_WRITING_DATE_UTC: 2026-03-28 15:26:18
        _STATISTICS_TAGS: BPS DURATION NUMBER_OF_FRAMES NUMBER_OF_BYTES
Input #1, mov,mp4,m4a,3gp,3g2,mj2, from 'F:\Аниме\LightFamily\Однажды я стала принцессой\LightFamilyDUB_Однажды_я_стала_принцессой_02_серия.mp4':
  Metadata:
    major_brand     : mp42
    minor_version   : 0
    compatible_brands: mp42mp41
    creation_time   : 2025-10-22T00:06:32.000000Z
  Duration: 00:20:53.42, start: 0.000000, bitrate: 8782 kb/s
  Stream #1:0[0x1](eng): Video: h264 (Main) (avc1 / 0x31637661), yuv420p(progressive), 1920x1080 [SAR 1:1 DAR 16:9], 8398 kb/s, 23.98 fps, 23.98 tbr, 24k tbn (default)
      Metadata:
        creation_time   : 2025-10-22T00:06:32.000000Z
        handler_name    : Mainconcept Video Media Handler
        vendor_id       : [0][0][0][0]
        encoder         : AVC Coding
  Stream #1:1[0x2](eng): Audio: aac (LC) (mp4a / 0x6134706D), 48000 Hz, stereo, fltp, 381 kb/s (default)
      Metadata:
        creation_time   : 2025-10-22T00:06:32.000000Z
        handler_name    : #Mainconcept MP4 Sound Media Handler
        vendor_id       : [0][0][0][0]
Stream mapping:
  Stream #0:0 (hevc) -> settb:default
  Stream #1:0 (h264) -> settb:default
  ssim:default -> Stream #0:0 (wrapped_avframe)
  Stream #0:1 -> #0:1 (aac (native) -> pcm_s16le (native))
Output #0, null, to 'pipe:':
  Metadata:
    COMPATIBLE_BRANDS: mp42mp41
    MAJOR_BRAND     : mp42
    MINOR_VERSION   : 0
    encoder         : Lavf61.7.100
  Stream #0:0: Video: wrapped_avframe, yuv420p10le(tv, progressive), 1920x1080 [SAR 1:1 DAR 16:9], q=2-31, 200 kb/s, 23.98 fps, 23.98 tbn
      Metadata:
        encoder         : Lavc61.19.100 wrapped_avframe
  Stream #0:1(eng): Audio: pcm_s16le, 48000 Hz, stereo, s16, 1536 kb/s (default)
      Metadata:
        HANDLER_NAME    : #Mainconcept MP4 Sound Media Handler
        VENDOR_ID       : [0][0][0][0]
        _STATISTICS_TAGS: BPS DURATION NUMBER_OF_FRAMES NUMBER_OF_BYTES
        BPS             : 195501
        DURATION        : 00:20:53.440000000
        NUMBER_OF_FRAMES: 58756
        NUMBER_OF_BYTES : 30631218
        _STATISTICS_WRITING_APP: mkvpropedit v94.0 ('Initiate') 64-bit
        _STATISTICS_WRITING_DATE_UTC: 2026-03-28 15:26:18
        encoder         : Lavc61.19.100 pcm_s16le
frame=  119 fps=0.0 q=-0.0 size=N/A time=00:00:04.96 bitrate=N/A speed=9.75x    frame=  290 fps=284 q=-0.0 size=N/A time=00:00:12.09 bitrate=N/A speed=11.8x    frame=  452 fps=292 q=-0.0 size=N/A time=00:00:18.85 bitrate=N/A speed=12.2x    frame=  695 fps=337 q=-0.0 size=N/A time=00:00:28.98 bitrate=N/A speed=14.1x    frame=  893 fps=347 q=-0.0 size=N/A time=00:00:37.24 bitrate=N/A speed=14.5x    frame= 1069 fps=347 q=-0.0 size=N/A time=00:00:44.58 bitrate=N/A speed=14.5x    frame= 1268 fps=351 q=-0.0 size=N/A time=00:00:52.88 bitrate=N/A speed=14.6x    frame= 1488 fps=361 q=-0.0 size=N/A time=00:01:02.06 bitrate=N/A speed=15.1x    frame= 1693 fps=365 q=-0.0 size=N/A time=00:01:10.61 bitrate=N/A speed=15.2x    frame= 1909 fps=371 q=-0.0 size=N/A time=00:01:19.62 bitrate=N/A speed=15.5x    frame= 2089 fps=369 q=-0.0 size=N/A time=00:01:27.12 bitrate=N/A speed=15.4x    frame= 2318 fps=375 q=-0.0 size=N/A time=00:01:36.67 bitrate=N/A speed=15.6x    frame= 2531 fps=378 q=-0.0 size=N/A time=00:01:45.56 bitrate=N/A speed=15.8x    frame= 2759 fps=383 q=-0.0 size=N/A time=00:01:55.07 bitrate=N/A speed=  16x    frame= 2994 fps=387 q=-0.0 size=N/A time=00:02:04.87 bitrate=N/A speed=16.1x    frame= 3170 fps=384 q=-0.0 size=N/A time=00:02:12.21 bitrate=N/A speed=  16x    frame= 3330 fps=380 q=-0.0 size=N/A time=00:02:18.88 bitrate=N/A speed=15.9x    frame= 3476 fps=375 q=-0.0 size=N/A time=00:02:24.97 bitrate=N/A speed=15.6x    frame= 3642 fps=372 q=-0.0 size=N/A time=00:02:31.90 bitrate=N/A speed=15.5x    frame= 3810 fps=370 q=-0.0 size=N/A time=00:02:38.90 bitrate=N/A speed=15.4x    frame= 3967 fps=367 q=-0.0 size=N/A time=00:02:45.45 bitrate=N/A speed=15.3x    frame= 4115 fps=363 q=-0.0 size=N/A time=00:02:51.62 bitrate=N/A speed=15.1x    frame= 4292 fps=362 q=-0.0 size=N/A time=00:02:59.01 bitrate=N/A speed=15.1x    frame= 4440 fps=359 q=-0.0 size=N/A time=00:03:05.18 bitrate=N/A speed=  15x    frame= 4586 fps=356 q=-0.0 size=N/A time=00:03:11.27 bitrate=N/A speed=14.9x    frame= 4736 fps=353 q=-0.0 size=N/A time=00:03:17.53 bitrate=N/A speed=14.7x    frame= 4921 fps=354 q=-0.0 size=N/A time=00:03:25.24 bitrate=N/A speed=14.7x    frame= 5074 fps=352 q=-0.0 size=N/A time=00:03:31.62 bitrate=N/A speed=14.7x    frame= 5249 fps=351 q=-0.0 size=N/A time=00:03:38.92 bitrate=N/A speed=14.7x    frame= 5387 fps=348 q=-0.0 size=N/A time=00:03:44.68 bitrate=N/A speed=14.5x    frame= 5572 fps=349 q=-0.0 size=N/A time=00:03:52.39 bitrate=N/A speed=14.5x    frame= 5790 fps=351 q=-0.0 size=N/A time=00:04:01.49 bitrate=N/A speed=14.6x    frame= 6043 fps=355 q=-0.0 size=N/A time=00:04:12.04 bitrate=N/A speed=14.8x    frame= 6255 fps=357 q=-0.0 size=N/A time=00:04:20.88 bitrate=N/A speed=14.9x    frame= 6448 fps=357 q=-0.0 size=N/A time=00:04:28.93 bitrate=N/A speed=14.9x    frame= 6626 fps=357 q=-0.0 size=N/A time=00:04:36.35 bitrate=N/A speed=14.9x    frame= 6803 fps=357 q=-0.0 size=N/A time=00:04:43.74 bitrate=N/A speed=14.9x    frame= 6974 fps=356 q=-0.0 size=N/A time=00:04:50.87 bitrate=N/A speed=14.8x    frame= 7161 fps=356 q=-0.0 size=N/A time=00:04:58.67 bitrate=N/A speed=14.8x    frame= 7352 fps=356 q=-0.0 size=N/A time=00:05:06.63 bitrate=N/A speed=14.9x    frame= 7559 fps=357 q=-0.0 size=N/A time=00:05:15.27 bitrate=N/A speed=14.9x    frame= 7725 fps=357 q=-0.0 size=N/A time=00:05:22.19 bitrate=N/A speed=14.9x    frame= 7914 fps=357 q=-0.0 size=N/A time=00:05:30.07 bitrate=N/A speed=14.9x    frame= 8114 fps=357 q=-0.0 size=N/A time=00:05:38.42 bitrate=N/A speed=14.9x    frame= 8301 fps=358 q=-0.0 size=N/A time=00:05:46.22 bitrate=N/A speed=14.9x    frame= 8486 fps=358 q=-0.0 size=N/A time=00:05:53.93 bitrate=N/A speed=14.9x    frame= 8675 fps=358 q=-0.0 size=N/A time=00:06:01.81 bitrate=N/A speed=14.9x    frame= 8838 fps=357 q=-0.0 size=N/A time=00:06:08.61 bitrate=N/A speed=14.9x    frame= 9018 fps=357 q=-0.0 size=N/A time=00:06:16.12 bitrate=N/A speed=14.9x    frame= 9217 fps=357 q=-0.0 size=N/A time=00:06:24.42 bitrate=N/A speed=14.9x    frame= 9422 fps=358 q=-0.0 size=N/A time=00:06:32.97 bitrate=N/A speed=14.9x    frame= 9641 fps=359 q=-0.0 size=N/A time=00:06:42.11 bitrate=N/A speed=  15x    frame= 9854 fps=360 q=-0.0 size=N/A time=00:06:50.99 bitrate=N/A speed=  15x    frame=10045 fps=361 q=-0.0 size=N/A time=00:06:59.00 bitrate=N/A speed=  15x    frame=10274 fps=362 q=-0.0 size=N/A time=00:07:08.51 bitrate=N/A speed=15.1x    frame=10498 fps=363 q=-0.0 size=N/A time=00:07:17.85 bitrate=N/A speed=15.2x    frame=10706 fps=364 q=-0.0 size=N/A time=00:07:26.52 bitrate=N/A speed=15.2x    frame=10897 fps=364 q=-0.0 size=N/A time=00:07:34.49 bitrate=N/A speed=15.2x    frame=11080 fps=364 q=-0.0 size=N/A time=00:07:42.12 bitrate=N/A speed=15.2x    frame=11272 fps=364 q=-0.0 size=N/A time=00:07:50.13 bitrate=N/A speed=15.2x    frame=11486 fps=365 q=-0.0 size=N/A time=00:07:59.06 bitrate=N/A speed=15.2x    frame=11676 fps=365 q=-0.0 size=N/A time=00:08:06.98 bitrate=N/A speed=15.2x    frame=11890 fps=366 q=-0.0 size=N/A time=00:08:15.91 bitrate=N/A speed=15.3x    frame=12090 fps=366 q=-0.0 size=N/A time=00:08:24.25 bitrate=N/A speed=15.3x    frame=12297 fps=367 q=-0.0 size=N/A time=00:08:32.88 bitrate=N/A speed=15.3x    frame=12500 fps=367 q=-0.0 size=N/A time=00:08:41.35 bitrate=N/A speed=15.3x    frame=12686 fps=367 q=-0.0 size=N/A time=00:08:49.11 bitrate=N/A speed=15.3x    frame=12895 fps=368 q=-0.0 size=N/A time=00:08:57.82 bitrate=N/A speed=15.3x    frame=13105 fps=368 q=-0.0 size=N/A time=00:09:06.58 bitrate=N/A speed=15.4x    frame=13322 fps=369 q=-0.0 size=N/A time=00:09:15.63 bitrate=N/A speed=15.4x    frame=13548 fps=370 q=-0.0 size=N/A time=00:09:25.06 bitrate=N/A speed=15.4x    frame=13767 fps=371 q=-0.0 size=N/A time=00:09:34.19 bitrate=N/A speed=15.5x    frame=13959 fps=371 q=-0.0 size=N/A time=00:09:42.20 bitrate=N/A speed=15.5x    frame=14150 fps=371 q=-0.0 size=N/A time=00:09:50.17 bitrate=N/A speed=15.5x    frame=14355 fps=371 q=-0.0 size=N/A time=00:09:58.72 bitrate=N/A speed=15.5x    frame=14550 fps=371 q=-0.0 size=N/A time=00:10:06.85 bitrate=N/A speed=15.5x    frame=14756 fps=372 q=-0.0 size=N/A time=00:10:15.44 bitrate=N/A speed=15.5x    frame=14962 fps=372 q=-0.0 size=N/A time=00:10:24.04 bitrate=N/A speed=15.5x    frame=15197 fps=373 q=-0.0 size=N/A time=00:10:33.84 bitrate=N/A speed=15.6x    frame=15428 fps=374 q=-0.0 size=N/A time=00:10:43.47 bitrate=N/A speed=15.6x    frame=15651 fps=375 q=-0.0 size=N/A time=00:10:52.77 bitrate=N/A speed=15.6x    frame=15887 fps=376 q=-0.0 size=N/A time=00:11:02.62 bitrate=N/A speed=15.7x    frame=16127 fps=377 q=-0.0 size=N/A time=00:11:12.63 bitrate=N/A speed=15.7x    frame=16361 fps=378 q=-0.0 size=N/A time=00:11:22.39 bitrate=N/A speed=15.7x    frame=16584 fps=378 q=-0.0 size=N/A time=00:11:31.69 bitrate=N/A speed=15.8x    frame=16809 fps=379 q=-0.0 size=N/A time=00:11:41.07 bitrate=N/A speed=15.8x    frame=17014 fps=379 q=-0.0 size=N/A time=00:11:49.62 bitrate=N/A speed=15.8x    frame=17249 fps=380 q=-0.0 size=N/A time=00:11:59.42 bitrate=N/A speed=15.9x    frame=17468 fps=381 q=-0.0 size=N/A time=00:12:08.56 bitrate=N/A speed=15.9x    frame=17686 fps=381 q=-0.0 size=N/A time=00:12:17.65 bitrate=N/A speed=15.9x    frame=17904 fps=381 q=-0.0 size=N/A time=00:12:26.74 bitrate=N/A speed=15.9x    frame=18126 fps=382 q=-0.0 size=N/A time=00:12:36.00 bitrate=N/A speed=15.9x    frame=18317 fps=382 q=-0.0 size=N/A time=00:12:43.97 bitrate=N/A speed=15.9x    frame=18504 fps=382 q=-0.0 size=N/A time=00:12:51.77 bitrate=N/A speed=15.9x    frame=18695 fps=382 q=-0.0 size=N/A time=00:12:59.73 bitrate=N/A speed=15.9x    frame=18897 fps=382 q=-0.0 size=N/A time=00:13:08.16 bitrate=N/A speed=15.9x    frame=19107 fps=382 q=-0.0 size=N/A time=00:13:16.92 bitrate=N/A speed=15.9x    frame=19320 fps=382 q=-0.0 size=N/A time=00:13:25.80 bitrate=N/A speed=15.9x    frame=19563 fps=383 q=-0.0 size=N/A time=00:13:35.94 bitrate=N/A speed=  16x    frame=19788 fps=384 q=-0.0 size=N/A time=00:13:45.32 bitrate=N/A speed=  16x    frame=20004 fps=384 q=-0.0 size=N/A time=00:13:54.33 bitrate=N/A speed=  16x    frame=20188 fps=384 q=-0.0 size=N/A time=00:14:02.00 bitrate=N/A speed=  16x    frame=20421 fps=384 q=-0.0 size=N/A time=00:14:11.72 bitrate=N/A speed=  16x    frame=20615 fps=384 q=-0.0 size=N/A time=00:14:19.81 bitrate=N/A speed=  16x    frame=20819 fps=384 q=-0.0 size=N/A time=00:14:28.32 bitrate=N/A speed=  16x    frame=21028 fps=385 q=-0.0 size=N/A time=00:14:37.04 bitrate=N/A speed=  16x    frame=21239 fps=385 q=-0.0 size=N/A time=00:14:45.84 bitrate=N/A speed=  16x    frame=21429 fps=385 q=-0.0 size=N/A time=00:14:53.76 bitrate=N/A speed=  16x    frame=21648 fps=385 q=-0.0 size=N/A time=00:15:02.90 bitrate=N/A speed=16.1x    frame=21856 fps=385 q=-0.0 size=N/A time=00:15:11.57 bitrate=N/A speed=16.1x    frame=22045 fps=385 q=-0.0 size=N/A time=00:15:19.46 bitrate=N/A speed=16.1x    frame=22244 fps=385 q=-0.0 size=N/A time=00:15:27.76 bitrate=N/A speed=16.1x    frame=22477 fps=386 q=-0.0 size=N/A time=00:15:37.47 bitrate=N/A speed=16.1x    frame=22693 fps=386 q=-0.0 size=N/A time=00:15:46.48 bitrate=N/A speed=16.1x    frame=22921 fps=386 q=-0.0 size=N/A time=00:15:55.99 bitrate=N/A speed=16.1x    frame=23159 fps=387 q=-0.0 size=N/A time=00:16:05.92 bitrate=N/A speed=16.1x    frame=23396 fps=388 q=-0.0 size=N/A time=00:16:15.80 bitrate=N/A speed=16.2x    frame=23625 fps=388 q=-0.0 size=N/A time=00:16:25.35 bitrate=N/A speed=16.2x    frame=23852 fps=389 q=-0.0 size=N/A time=00:16:34.82 bitrate=N/A speed=16.2x    frame=24080 fps=389 q=-0.0 size=N/A time=00:16:44.33 bitrate=N/A speed=16.2x    frame=24304 fps=389 q=-0.0 size=N/A time=00:16:53.67 bitrate=N/A speed=16.2x    frame=24530 fps=390 q=-0.0 size=N/A time=00:17:03.10 bitrate=N/A speed=16.3x    frame=24708 fps=389 q=-0.0 size=N/A time=00:17:10.52 bitrate=N/A speed=16.2x    frame=24924 fps=390 q=-0.0 size=N/A time=00:17:19.53 bitrate=N/A speed=16.3x    frame=25136 fps=390 q=-0.0 size=N/A time=00:17:28.38 bitrate=N/A speed=16.3x    frame=25333 fps=390 q=-0.0 size=N/A time=00:17:36.59 bitrate=N/A speed=16.3x    frame=25548 fps=390 q=-0.0 size=N/A time=00:17:45.56 bitrate=N/A speed=16.3x    frame=25777 fps=390 q=-0.0 size=N/A time=00:17:55.11 bitrate=N/A speed=16.3x    frame=25990 fps=391 q=-0.0 size=N/A time=00:18:03.99 bitrate=N/A speed=16.3x    frame=26206 fps=391 q=-0.0 size=N/A time=00:18:13.00 bitrate=N/A speed=16.3x    frame=26436 fps=391 q=-0.0 size=N/A time=00:18:22.60 bitrate=N/A speed=16.3x    frame=26645 fps=391 q=-0.0 size=N/A time=00:18:31.31 bitrate=N/A speed=16.3x    frame=26849 fps=391 q=-0.0 size=N/A time=00:18:39.82 bitrate=N/A speed=16.3x    frame=27032 fps=391 q=-0.0 size=N/A time=00:18:47.45 bitrate=N/A speed=16.3x    frame=27244 fps=391 q=-0.0 size=N/A time=00:18:56.30 bitrate=N/A speed=16.3x    frame=27448 fps=391 q=-0.0 size=N/A time=00:19:04.81 bitrate=N/A speed=16.3x    frame=27623 fps=391 q=-0.0 size=N/A time=00:19:12.10 bitrate=N/A speed=16.3x    frame=27790 fps=390 q=-0.0 size=N/A time=00:19:19.07 bitrate=N/A speed=16.3x    frame=27962 fps=390 q=-0.0 size=N/A time=00:19:26.24 bitrate=N/A speed=16.3x    frame=28131 fps=390 q=-0.0 size=N/A time=00:19:33.29 bitrate=N/A speed=16.2x    frame=28301 fps=389 q=-0.0 size=N/A time=00:19:40.38 bitrate=N/A speed=16.2x    frame=28456 fps=389 q=-0.0 size=N/A time=00:19:46.85 bitrate=N/A speed=16.2x    frame=28627 fps=388 q=-0.0 size=N/A time=00:19:53.98 bitrate=N/A speed=16.2x    frame=28789 fps=388 q=-0.0 size=N/A time=00:20:00.74 bitrate=N/A speed=16.2x    frame=28946 fps=387 q=-0.0 size=N/A time=00:20:07.28 bitrate=N/A speed=16.1x    frame=29090 fps=386 q=-0.0 size=N/A time=00:20:13.29 bitrate=N/A speed=16.1x    frame=29232 fps=386 q=-0.0 size=N/A time=00:20:19.21 bitrate=N/A speed=16.1x    frame=29394 fps=385 q=-0.0 size=N/A time=00:20:25.97 bitrate=N/A speed=16.1x    frame=29566 fps=385 q=-0.0 size=N/A time=00:20:33.14 bitrate=N/A speed=  16x    frame=29739 fps=384 q=-0.0 size=N/A time=00:20:40.36 bitrate=N/A speed=  16x    frame=29930 fps=384 q=-0.0 size=N/A time=00:20:48.33 bitrate=N/A speed=  16x    [Parsed_ssim_14 @ 0000026787368740] SSIM Y:0.993166 (21.653077) U:0.992520 (21.260869) V:0.992416 (21.200829) All:0.992933 (21.507688)
[out#0/null @ 0000026786e42e80] video:12913KiB audio:235024KiB subtitle:0KiB other streams:0KiB global headers:0KiB muxing overhead: unknown
frame=30052 fps=385 q=-0.0 Lsize=N/A time=00:20:53.41 bitrate=N/A speed=  16x    
